#define zoom_select_mask_width 24
#define zoom_select_mask_height 24
static unsigned char zoom_select_mask_bits[] = {
   0x70, 0x00, 0x00, 0x70, 0x00, 0x00, 0x70, 0x00, 0x00, 0x70, 0x00, 0x00,
   0xff, 0xff, 0x07, 0xff, 0xff, 0x07, 0xff, 0xff, 0x07, 0xf0, 0xff, 0x07,
   0xf0, 0xff, 0x07, 0xf0, 0xff, 0x07, 0xf0, 0xff, 0x0f, 0xf0, 0xff, 0x0f,
   0xf0, 0xff, 0x0f, 0xf0, 0xff, 0x0f, 0xf0, 0xff, 0x0f, 0xf0, 0xff, 0x0f,
   0xf0, 0xff, 0x0f, 0xf0, 0xff, 0x1f, 0xf0, 0xff, 0x3f, 0x00, 0xfc, 0x7f,
   0x00, 0x00, 0xfe, 0x00, 0x00, 0x7c, 0x00, 0x00, 0x38, 0x00, 0x00, 0x10};
